<svg id="visual" viewBox="0 0 900 600" width="900" height="600" xmlns="http://www.w3.org/2000/svg" xmlns:xlink="http://www.w3.org/1999/xlink" version="1.1"><rect x="0" y="0" width="900" height="600" fill="#ffffff"></rect><defs><linearGradient id="grad1_0" x1="33.3%" y1="0%" x2="100%" y2="100%"><stop offset="20%" stop-color="#00ff00" stop-opacity="1"></stop><stop offset="80%" stop-color="#00ff00" stop-opacity="1"></stop></linearGradient></defs><defs><linearGradient id="grad1_1" x1="33.3%" y1="0%" x2="100%" y2="100%"><stop offset="20%" stop-color="#00ff00" stop-opacity="1"></stop><stop offset="80%" stop-color="#70ff57" stop-opacity="1"></stop></linearGradient></defs><defs><linearGradient id="grad1_2" x1="33.3%" y1="0%" x2="100%" y2="100%"><stop offset="20%" stop-color="#9eff85" stop-opacity="1"></stop><stop offset="80%" stop-color="#70ff57" stop-opacity="1"></stop></linearGradient></defs><defs><linearGradient id="grad1_3" x1="33.3%" y1="0%" x2="100%" y2="100%"><stop offset="20%" stop-color="#9eff85" stop-opacity="1"></stop><stop offset="80%" stop-color="#c3ffaf" stop-opacity="1"></stop></linearGradient></defs><defs><linearGradient id="grad1_4" x1="33.3%" y1="0%" x2="100%" y2="100%"><stop offset="20%" stop-color="#e2ffd7" stop-opacity="1"></stop><stop offset="80%" stop-color="#c3ffaf" stop-opacity="1"></stop></linearGradient></defs><defs><linearGradient id="grad1_5" x1="33.3%" y1="0%" x2="100%" y2="100%"><stop offset="20%" stop-color="#e2ffd7" stop-opacity="1"></stop><stop offset="80%" stop-color="#ffffff" stop-opacity="1"></stop></linearGradient></defs><defs><linearGradient id="grad2_0" x1="0%" y1="0%" x2="66.7%" y2="100%"><stop offset="20%" stop-color="#00ff00" stop-opacity="1"></stop><stop offset="80%" stop-color="#00ff00" stop-opacity="1"></stop></linearGradient></defs><defs><linearGradient id="grad2_1" x1="0%" y1="0%" x2="66.7%" y2="100%"><stop offset="20%" stop-color="#70ff57" stop-opacity="1"></stop><stop offset="80%" stop-color="#00ff00" stop-opacity="1"></stop></linearGradient></defs><defs><linearGradient id="grad2_2" x1="0%" y1="0%" x2="66.7%" y2="100%"><stop offset="20%" stop-color="#70ff57" stop-opacity="1"></stop><stop offset="80%" stop-color="#9eff85" stop-opacity="1"></stop></linearGradient></defs><defs><linearGradient id="grad2_3" x1="0%" y1="0%" x2="66.7%" y2="100%"><stop offset="20%" stop-color="#c3ffaf" stop-opacity="1"></stop><stop offset="80%" stop-color="#9eff85" stop-opacity="1"></stop></linearGradient></defs><defs><linearGradient id="grad2_4" x1="0%" y1="0%" x2="66.7%" y2="100%"><stop offset="20%" stop-color="#c3ffaf" stop-opacity="1"></stop><stop offset="80%" stop-color="#e2ffd7" stop-opacity="1"></stop></linearGradient></defs><defs><linearGradient id="grad2_5" x1="0%" y1="0%" x2="66.7%" y2="100%"><stop offset="20%" stop-color="#ffffff" stop-opacity="1"></stop><stop offset="80%" stop-color="#e2ffd7" stop-opacity="1"></stop></linearGradient></defs><g transform="translate(900, 0)"><path d="M0 297.5C-24.3 288.7 -48.5 280 -73.2 273.4C-98 266.7 -123.2 262.2 -145 251.1C-166.8 240.1 -185.3 222.4 -205.1 205.1C-224.9 187.7 -246 170.7 -257.6 148.7C-269.2 126.7 -271.2 99.6 -276.3 74C-281.3 48.4 -289.4 24.2 -297.5 0L0 0Z" fill="#f1ffeb"></path><path d="M0 247.9C-20.2 240.6 -40.4 233.3 -61 227.8C-81.6 222.3 -102.6 218.5 -120.8 209.3C-139 200.1 -154.4 185.3 -170.9 170.9C-187.4 156.4 -205 142.3 -214.7 123.9C-224.3 105.6 -226 83 -230.2 61.7C-234.4 40.3 -241.1 20.2 -247.9 0L0 0Z" fill="#d3ffc3"></path><path d="M0 198.3C-16.2 192.5 -32.3 186.7 -48.8 182.2C-65.3 177.8 -82.1 174.8 -96.7 167.4C-111.2 160 -123.5 148.3 -136.7 136.7C-149.9 125.2 -164 113.8 -171.7 99.2C-179.5 84.5 -180.8 66.4 -184.2 49.3C-187.5 32.3 -192.9 16.1 -198.3 0L0 0Z" fill="#b1ff9a"></path><path d="M0 148.7C-12.1 144.4 -24.3 140 -36.6 136.7C-49 133.4 -61.6 131.1 -72.5 125.6C-83.4 120 -92.6 111.2 -102.5 102.5C-112.4 93.9 -123 85.4 -128.8 74.4C-134.6 63.4 -135.6 49.8 -138.1 37C-140.7 24.2 -144.7 12.1 -148.7 0L0 0Z" fill="#89ff6f"></path><path d="M0 99.2C-8.1 96.2 -16.2 93.3 -24.4 91.1C-32.7 88.9 -41.1 87.4 -48.3 83.7C-55.6 80 -61.8 74.1 -68.4 68.4C-75 62.6 -82 56.9 -85.9 49.6C-89.7 42.2 -90.4 33.2 -92.1 24.7C-93.8 16.1 -96.5 8.1 -99.2 0L0 0Z" fill="#4fff3b"></path><path d="M0 49.6C-4 48.1 -8.1 46.7 -12.2 45.6C-16.3 44.5 -20.5 43.7 -24.2 41.9C-27.8 40 -30.9 37.1 -34.2 34.2C-37.5 31.3 -41 28.5 -42.9 24.8C-44.9 21.1 -45.2 16.6 -46 12.3C-46.9 8.1 -48.2 4 -49.6 0L0 0Z" fill="#00ff00"></path></g><g transform="translate(0, 600)"><path d="M0 -297.5C24.7 -291 49.5 -284.6 74.8 -279.2C100.1 -273.7 126 -269.2 148.7 -257.6C171.4 -246 190.9 -227.2 207.2 -207.2C223.5 -187.1 236.5 -165.8 249.4 -144C262.3 -122.2 275 -99.9 283 -75.8C291 -51.8 294.2 -25.9 297.5 0L0 0Z" fill="#f1ffeb"></path><path d="M0 -247.9C20.6 -242.5 41.2 -237.2 62.3 -232.6C83.4 -228.1 105 -224.4 123.9 -214.7C142.9 -205 159.1 -189.4 172.7 -172.7C186.2 -155.9 197.1 -138.2 207.8 -120C218.6 -101.8 229.2 -83.3 235.8 -63.2C242.5 -43.1 245.2 -21.6 247.9 0L0 0Z" fill="#d3ffc3"></path><path d="M0 -198.3C16.5 -194 33 -189.7 49.9 -186.1C66.7 -182.5 84 -179.5 99.2 -171.7C114.3 -164 127.3 -151.5 138.1 -138.1C149 -124.8 157.7 -110.5 166.3 -96C174.9 -81.5 183.4 -66.6 188.7 -50.6C194 -34.5 196.2 -17.3 198.3 0L0 0Z" fill="#b1ff9a"></path><path d="M0 -148.7C12.4 -145.5 24.7 -142.3 37.4 -139.6C50.1 -136.9 63 -134.6 74.4 -128.8C85.7 -123 95.5 -113.6 103.6 -103.6C111.7 -93.6 118.3 -82.9 124.7 -72C131.2 -61.1 137.5 -50 141.5 -37.9C145.5 -25.9 147.1 -12.9 148.7 0L0 0Z" fill="#89ff6f"></path><path d="M0 -99.2C8.2 -97 16.5 -94.9 24.9 -93.1C33.4 -91.2 42 -89.7 49.6 -85.9C57.1 -82 63.6 -75.7 69.1 -69.1C74.5 -62.4 78.8 -55.3 83.1 -48C87.4 -40.7 91.7 -33.3 94.3 -25.3C97 -17.3 98.1 -8.6 99.2 0L0 0Z" fill="#4fff3b"></path><path d="M0 -49.6C4.1 -48.5 8.2 -47.4 12.5 -46.5C16.7 -45.6 21 -44.9 24.8 -42.9C28.6 -41 31.8 -37.9 34.5 -34.5C37.2 -31.2 39.4 -27.6 41.6 -24C43.7 -20.4 45.8 -16.7 47.2 -12.6C48.5 -8.6 49 -4.3 49.6 0L0 0Z" fill="#00ff00"></path></g></svg>