<svg id="visual" viewBox="0 0 450 900" width="450" height="900" xmlns="http://www.w3.org/2000/svg" xmlns:xlink="http://www.w3.org/1999/xlink" version="1.1"><rect x="0" y="0" width="450" height="900" fill="#ffffff"></rect><defs><linearGradient id="grad1_0" x1="0%" y1="0%" x2="100%" y2="100%"><stop offset="30%" stop-color="#00f500" stop-opacity="1"></stop><stop offset="70%" stop-color="#00f500" stop-opacity="1"></stop></linearGradient></defs><defs><linearGradient id="grad1_1" x1="0%" y1="0%" x2="100%" y2="100%"><stop offset="30%" stop-color="#00f500" stop-opacity="1"></stop><stop offset="70%" stop-color="#7af962" stop-opacity="1"></stop></linearGradient></defs><defs><linearGradient id="grad1_2" x1="0%" y1="0%" x2="100%" y2="100%"><stop offset="30%" stop-color="#affd99" stop-opacity="1"></stop><stop offset="70%" stop-color="#7af962" stop-opacity="1"></stop></linearGradient></defs><defs><linearGradient id="grad1_3" x1="0%" y1="0%" x2="100%" y2="100%"><stop offset="30%" stop-color="#affd99" stop-opacity="1"></stop><stop offset="70%" stop-color="#d9ffcc" stop-opacity="1"></stop></linearGradient></defs><defs><linearGradient id="grad1_4" x1="0%" y1="0%" x2="100%" y2="100%"><stop offset="30%" stop-color="#ffffff" stop-opacity="1"></stop><stop offset="70%" stop-color="#d9ffcc" stop-opacity="1"></stop></linearGradient></defs><defs><linearGradient id="grad2_0" x1="0%" y1="0%" x2="100%" y2="100%"><stop offset="30%" stop-color="#00f500" stop-opacity="1"></stop><stop offset="70%" stop-color="#00f500" stop-opacity="1"></stop></linearGradient></defs><defs><linearGradient id="grad2_1" x1="0%" y1="0%" x2="100%" y2="100%"><stop offset="30%" stop-color="#7af962" stop-opacity="1"></stop><stop offset="70%" stop-color="#00f500" stop-opacity="1"></stop></linearGradient></defs><defs><linearGradient id="grad2_2" x1="0%" y1="0%" x2="100%" y2="100%"><stop offset="30%" stop-color="#7af962" stop-opacity="1"></stop><stop offset="70%" stop-color="#affd99" stop-opacity="1"></stop></linearGradient></defs><defs><linearGradient id="grad2_3" x1="0%" y1="0%" x2="100%" y2="100%"><stop offset="30%" stop-color="#d9ffcc" stop-opacity="1"></stop><stop offset="70%" stop-color="#affd99" stop-opacity="1"></stop></linearGradient></defs><defs><linearGradient id="grad2_4" x1="0%" y1="0%" x2="100%" y2="100%"><stop offset="30%" stop-color="#d9ffcc" stop-opacity="1"></stop><stop offset="70%" stop-color="#ffffff" stop-opacity="1"></stop></linearGradient></defs><g transform="translate(450, 0)"><path d="M0 292.5C-28.2 283.1 -56.4 273.6 -86.5 266.3C-116.6 259 -148.6 253.8 -171.9 236.6C-195.3 219.5 -210.1 190.3 -225.7 164C-241.4 137.7 -257.9 114.3 -269.1 87.5C-280.4 60.6 -286.5 30.3 -292.5 0L0 0Z" fill="#edffe6"></path><path d="M0 234C-22.6 226.4 -45.2 218.9 -69.2 213C-93.3 207.2 -118.8 203.1 -137.5 189.3C-156.2 175.6 -168.1 152.2 -180.6 131.2C-193.1 110.2 -206.3 91.4 -215.3 70C-224.3 48.5 -229.2 24.2 -234 0L0 0Z" fill="#c5feb3"></path><path d="M0 175.5C-16.9 169.8 -33.9 164.2 -51.9 159.8C-70 155.4 -89.1 152.3 -103.2 142C-117.2 131.7 -126 114.2 -135.4 98.4C-144.8 82.6 -154.7 68.6 -161.5 52.5C-168.3 36.4 -171.9 18.2 -175.5 0L0 0Z" fill="#97fb7e"></path><path d="M0 117C-11.3 113.2 -22.6 109.4 -34.6 106.5C-46.6 103.6 -59.4 101.5 -68.8 94.7C-78.1 87.8 -84 76.1 -90.3 65.6C-96.5 55.1 -103.1 45.7 -107.7 35C-112.2 24.2 -114.6 12.1 -117 0L0 0Z" fill="#56f741"></path><path d="M0 58.5C-5.6 56.6 -11.3 54.7 -17.3 53.3C-23.3 51.8 -29.7 50.8 -34.4 47.3C-39.1 43.9 -42 38.1 -45.1 32.8C-48.3 27.5 -51.6 22.9 -53.8 17.5C-56.1 12.1 -57.3 6.1 -58.5 0L0 0Z" fill="#00f500"></path></g><g transform="translate(0, 900)"><path d="M0 -292.5C29.3 -286.3 58.6 -280.2 88.4 -272C118.2 -263.8 148.6 -253.7 170.5 -234.6C192.3 -215.5 205.7 -187.5 224.1 -162.8C242.5 -138.2 265.9 -117 278.2 -90.4C290.4 -63.8 291.5 -31.9 292.5 0L0 0Z" fill="#edffe6"></path><path d="M0 -234C23.4 -229.1 46.8 -224.1 70.7 -217.6C94.6 -211.1 118.9 -203 136.4 -187.7C153.9 -172.4 164.6 -150 179.3 -130.3C194 -110.5 212.8 -93.6 222.5 -72.3C232.3 -51.1 233.2 -25.5 234 0L0 0Z" fill="#c5feb3"></path><path d="M0 -175.5C17.6 -171.8 35.1 -168.1 53 -163.2C70.9 -158.3 89.2 -152.2 102.3 -140.8C115.4 -129.3 123.4 -112.5 134.5 -97.7C145.5 -82.9 159.6 -70.2 166.9 -54.2C174.3 -38.3 174.9 -19.1 175.5 0L0 0Z" fill="#97fb7e"></path><path d="M0 -117C11.7 -114.5 23.4 -112.1 35.4 -108.8C47.3 -105.5 59.4 -101.5 68.2 -93.8C76.9 -86.2 82.3 -75 89.6 -65.1C97 -55.3 106.4 -46.8 111.3 -36.2C116.2 -25.5 116.6 -12.8 117 0L0 0Z" fill="#56f741"></path><path d="M0 -58.5C5.9 -57.3 11.7 -56 17.7 -54.4C23.6 -52.8 29.7 -50.7 34.1 -46.9C38.5 -43.1 41.1 -37.5 44.8 -32.6C48.5 -27.6 53.2 -23.4 55.6 -18.1C58.1 -12.8 58.3 -6.4 58.5 0L0 0Z" fill="#00f500"></path></g></svg>