<svg id="e81Ej7rp0sV1" xmlns="http://www.w3.org/2000/svg" xmlns:xlink="http://www.w3.org/1999/xlink" viewBox="0 0 1236 1624" shape-rendering="geometricPrecision" text-rendering="geometricPrecision"><path d="M1.258358,936.272583C1,625.875732,1.01225,315.751526,0.874293,5.627341c-.001919-4.31489,1.197221-4.721155,4.997144-4.720235c408.777367.098978,817.554771.099969,1226.332176-.010929c3.955445-.001073,4.914429.652145,4.912842,4.806206C1236.989868,341.822449,1237,677.942566,1237,1014.531372c-2.762085,2.78949-1.126709,6.145691-1.931641,8.961609-1.357788,4.749817-2.532348,9.533997-4.030883,14.268005-4.48169,14.158203-8.815186,28.383423-13.967164,42.293091-3.957641,10.685303-9.29541,20.901978-13.650268,31.420288-5.601318,13.528565-12.680664,26.276734-18.894043,39.458863-3.845581,8.158691-8.960938,15.823852-13.73291,23.574829-3.990235,6.480957-7.777588,13.0802-11.505371,19.711792-3.007324,5.349731-6.851074,10.147094-9.889282,15.481933-4.240357,7.445801-9.897584,13.95459-14.250855,21.368286-2.66687,4.541626-6.875732,8.076661-9.588501,12.701416-5.801147,9.890137-12.933594,18.920899-20.271851,27.587891-5.984252,7.067749-11.846923,14.330688-17.547607,21.55603-7.161621,9.077027-15.886597,16.763672-22.296631,26.50647-3.905029,5.935425-10.436035,9.883911-14.742309,15.533569-10.837281,14.217896-23.902955,26.272095-36.359681,38.928955-6.189697,6.289307-11.785949,13.46399-18.8432,18.528687-11.620728,8.339355-20.330261,19.658813-31.349915,28.392944-6.918701,5.483521-12.816345,12.034424-19.690552,17.348267-12.705078,9.821045-24.480835,20.86792-37.704589,29.915039-11.622437,7.951294-22.24762,17.219116-34.237061,24.719971-4.871521,3.047607-9.834167,6.607422-14.178101,10.721435-2.869689,2.717896-6.671142,4.238159-9.968689,6.454712-8.923095,5.997803-18.123779,11.589478-27.280944,17.236572-6.863037,4.232422-13.786866,8.341553-20.788941,12.353638-22.648987,12.977539-46.07904,24.420898-69.608215,35.573486-10.035889,4.756958-20.55481,9.209595-31.657715,11.548584-6.828308,1.438599-12.779175,5.515625-19.72229,6.630982-7.966858,1.279785-16.029541,2.765869-23.631958,5.039795-16.964844,5.074218-34.063721,1.325073-51.027344,2.603271-2.854675.21521-5.665527-.250732-8.137634-1.901489-.704956-.470947-1.457947-.857422-2.302368-.889893-9.508057-.367431-18.434632-3.785644-27.57843-5.810058-8.442444-1.868897-16.69812-5.336182-24.809388-8.666748-3.82135-1.569092-7.693054-3.118286-11.544189-4.507691-15.623169-5.636474-30.305756-13.242065-45.334259-20.172119-12.72934-5.869873-24.030365-14.056885-36.718689-19.961914-9.82132-4.570557-18.944275-10.897339-28.134033-16.831299-10.301911-6.651855-20.326203-13.723266-30.678345-20.310669-4.17041-2.653808-7.423462-6.688232-11.885681-9.026611-6.211853-3.255493-11.869751-7.592407-16.95108-12.094727-9.340912-8.276367-20.350586-14.198364-29.52475-22.759155-5.420319-5.058105-11.012238-10.486694-17.835419-14.071411-2.200897-1.156372-4.078003-2.897827-5.904816-4.592407-9.345062-8.669312-18.661071-17.492798-28.443267-25.529053-10.324219-8.481323-19.878296-17.598267-29.063172-27.146118-10.839584-11.268311-22.587387-21.606201-33.139679-33.174683-5.58168-6.119018-11.660904-11.835937-17.821823-17.416992-2.738617-2.480835-4.944961-5.303833-6.768677-8.567139-3.30104-5.90686-9.293792-9.502075-13.371246-14.729858-6.00032-7.693237-12.86441-14.647583-18.662567-22.517456-4.216934-5.723633-8.481796-11.524414-13.240784-16.726318-7.354187-8.038697-13.615494-16.824952-19.322151-25.945069-3.121689-4.989013-7.523636-8.764282-10.540138-13.826294-6.364472-10.68042-13.455254-20.95227-20.488877-31.19104-7.533714-10.966919-13.455719-22.815674-20.525711-34.019775-9.559738-15.14978-18.736667-30.771607-25.17445-47.417481-3.760372-9.7229-8.599399-18.962158-12.373428-28.671386-3.629478-9.337281-6.625978-19.087525-11.467781-27.959351-1.654047-3.030762-1.971296-6.338257-2.940136-9.493042-1.702938-5.545166-3.577783-11.005371-5.948961-16.292236-1.532135-3.416016-1.125796-7.166748-2.0094-10.73938-2.177591-8.804504-3.706857-17.912903-6.47853-26.411255-2.389146-7.325317-1.83781-14.927368-4.593497-22.191223-2.19763-5.792969-1.870527-12.698853-2.338141-19.122925-.458476-6.298584-.077744-12.656677-.115221-18.988403-.009612-1.62378.416952-3.37555-1.226413-5.006531Z" fill="#00f500"/><path d="M814.071289,448.93161c46.554565,36.969818,75.202026,85.075653,90.843262,141.435883c14.04364,50.604065,17.334839,102.256347,14.357055,154.463928-2.155029,37.782532-9.348632,74.53418-22.774047,109.979492-18.014283,47.560852-46.058411,88.267273-83.682434,122.453796-50.082764,45.506836-109.264039,71.80597-175.379029,83.863709-30.439392,5.551514-61.105835,7.780762-91.964111,7.840088-58.827454.113159-117.655457-.030884-176.482514.156738-4.579345.014649-5.306213-1.311279-5.30429-5.504028.104492-226.978089.1091-453.956177-.02005-680.934235-.002686-4.724548,1.388336-5.632202,5.802948-5.621795c60.993774.143554,121.988037.061492,182.982116.108795c48.107605.037323,95.813782,3.889923,142.609619,15.757904c43.15503,10.944702,83.449585,28.042022,119.011475,55.999725Z" fill="#fefffe"/><path d="M615.608521,454.241821c23.253356,3.021241,45.697875,7.640778,67.502441,15.079407c69.510742,23.713532,116.047302,70.0047,137.903259,140.49353c8.882874,28.648499,12.942017,58.079285,14.03833,87.972596c1.324097,36.104003-.656677,71.963989-9.534301,107.114929-22.408326,88.725769-77.511536,146.94104-164.508973,174.957275-28.039673,9.029785-56.987121,13.480164-86.333557,14.931458-41.959533,2.075256-83.967163.671997-125.950836,1.127075-3.665863.039734-3.951508-1.467407-3.940491-4.393677.08432-22.495056.045838-44.990601.045838-67.485962-.000031-155.801269.025848-311.602539-.118012-467.403717-.004577-4.949402,1.036682-6.310638,6.15741-6.256561c41.653534.440002,83.314636-.375214,124.966736.638214c13.165588.320343,26.266479,1.53833,39.772156,3.225433Z" fill="#00f500"/></svg>
