<svg id="visual" viewBox="0 0 900 600" width="900" height="600" xmlns="http://www.w3.org/2000/svg" xmlns:xlink="http://www.w3.org/1999/xlink" version="1.1"><path d="M0 127L82 127L82 97L164 97L164 43L245 43L245 79L327 79L327 109L409 109L409 55L491 55L491 49L573 49L573 61L655 61L655 103L736 103L736 43L818 43L818 73L900 73L900 73L900 0L900 0L818 0L818 0L736 0L736 0L655 0L655 0L573 0L573 0L491 0L491 0L409 0L409 0L327 0L327 0L245 0L245 0L164 0L164 0L82 0L82 0L0 0Z" fill="#ffffff"></path><path d="M0 205L82 205L82 337L164 337L164 169L245 169L245 283L327 283L327 289L409 289L409 163L491 163L491 331L573 331L573 289L655 289L655 259L736 259L736 265L818 265L818 253L900 253L900 277L900 71L900 71L818 71L818 41L736 41L736 101L655 101L655 59L573 59L573 47L491 47L491 53L409 53L409 107L327 107L327 77L245 77L245 41L164 41L164 95L82 95L82 125L0 125Z" fill="#d9ffcc"></path><path d="M0 445L82 445L82 457L164 457L164 505L245 505L245 433L327 433L327 439L409 439L409 445L491 445L491 451L573 451L573 451L655 451L655 451L736 451L736 439L818 439L818 397L900 397L900 487L900 275L900 251L818 251L818 263L736 263L736 257L655 257L655 287L573 287L573 329L491 329L491 161L409 161L409 287L327 287L327 281L245 281L245 167L164 167L164 335L82 335L82 203L0 203Z" fill="#affd99"></path><path d="M0 541L82 541L82 559L164 559L164 565L245 565L245 547L327 547L327 499L409 499L409 547L491 547L491 565L573 565L573 565L655 565L655 553L736 553L736 535L818 535L818 541L900 541L900 553L900 485L900 395L818 395L818 437L736 437L736 449L655 449L655 449L573 449L573 449L491 449L491 443L409 443L409 437L327 437L327 431L245 431L245 503L164 503L164 455L82 455L82 443L0 443Z" fill="#7afa62"></path><path d="M0 601L82 601L82 601L164 601L164 601L245 601L245 601L327 601L327 601L409 601L409 601L491 601L491 601L573 601L573 601L655 601L655 601L736 601L736 601L818 601L818 601L900 601L900 601L900 551L900 539L818 539L818 533L736 533L736 551L655 551L655 563L573 563L573 563L491 563L491 545L409 545L409 497L327 497L327 545L245 545L245 563L164 563L164 557L82 557L82 539L0 539Z" fill="#00f500"></path></svg>